<svg xmlns="http://www.w3.org/2000/svg" xmlns:xlink="http://www.w3.org/1999/xlink" width="2462.667" height="1549.336" viewBox="0 0 2462.667 1549.336">
  <defs>
    <linearGradient id="linear-gradient" x1="0.728" y1="0.586" x2="0.302" y2="0.608" gradientUnits="objectBoundingBox">
      <stop offset="0" stop-color="#186958"/>
      <stop offset="1" stop-color="#409062"/>
    </linearGradient>
    <linearGradient id="linear-gradient-2" x1="0.786" y1="0.603" x2="0.278" y2="0.72" gradientUnits="objectBoundingBox">
      <stop offset="0" stop-color="#5b9258"/>
      <stop offset="1" stop-color="#36d2b9"/>
    </linearGradient>
    <linearGradient id="linear-gradient-3" x1="0.706" y1="0.24" x2="0.156" y2="0.691" gradientUnits="objectBoundingBox">
      <stop offset="0" stop-color="#409062"/>
      <stop offset="1" stop-color="#8fc16a"/>
    </linearGradient>
  </defs>
  <g id=":_footer" data-name=": footer" transform="translate(258.465 -4273.241)">
    <path id="Path_652" data-name="Path 652" d="M287.114,29.938C394.864-18.6,537.039,166,584.232,270.964c64.189,142.774,176.52,110.22,261.507,138.422C958.428,446.781,923.921,549.7,773.006,536.2c-300.958-26.915-304.389,214.836-532.228,80.177S-40.811,204.954,104.165,193.393,209.126,65.068,287.114,29.938Z" transform="translate(-100.752 4796.206) rotate(-22)" fill="url(#linear-gradient)"/>
    <path id="Path_653" data-name="Path 653" d="M365.519,55.514c132.8-78.129,326.236,230.443,393.647,405.208,91.69,237.713,231.452,186.139,341.066,234.593,145.34,64.246,109.216,233.926-82.748,208.452-382.818-50.8-369.446,349.385-667.63,121.717s-386.481-687-203.87-703.138S269.405,112.061,365.519,55.514Z" transform="translate(-325.117 5083.715) rotate(-45)" fill="url(#linear-gradient-2)"/>
    <path id="Path_654" data-name="Path 654" d="M91.187,253.611C327.74,327.3,386.626,589.085,570.461,497s189.107,83.347,350.991-16.6,117.41-433.214-167.4-420.288c-122.266,5.551-292.711,183.207-397.5,51.792C124.778-178.772-144.559,180.178,91.187,253.611Z" transform="translate(2204.202 5154.553) rotate(172)" fill="url(#linear-gradient-3)"/>
  </g>
</svg>
